<?xml version="1.0" encoding="UTF-8"?>
<!DOCTYPE svg PUBLIC "-//W3C//DTD SVG 1.1//EN" "http://www.w3.org/Graphics/SVG/1.1/DTD/svg11.dtd">
<!-- Creator: CorelDRAW 2019 (64-Bit) -->
<svg xmlns="http://www.w3.org/2000/svg" xml:space="preserve" width="500mm" height="500mm" version="1.1" style="shape-rendering:geometricPrecision; text-rendering:geometricPrecision; image-rendering:optimizeQuality; fill-rule:evenodd; clip-rule:evenodd"
viewBox="0 0 50000 50000"
 xmlns:xlink="http://www.w3.org/1999/xlink">
 <defs>
  <style type="text/css">
   <![CDATA[
    .str0 {stroke:#CCFFCC;stroke-width:20;stroke-miterlimit:22.9256}
    .fil0 {fill:#CCFFCC}
   ]]>
  </style>
 </defs>
 <g id="Слой_x0020_1">
  <metadata id="CorelCorpID_0Corel-Layer"/>
  <g id="_1768888072864">
   <g>
    <rect class="fil0 str0" x="11220" y="6631.48" width="4592.64" height="4592.64"/>
    <rect class="fil0 str0" x="15812.64" y="11224.13" width="4592.64" height="4592.64"/>
    <rect class="fil0 str0" x="15812.64" y="15816.77" width="4592.64" height="4592.64"/>
    <rect class="fil0 str0" x="11220" y="15816.77" width="4592.64" height="4592.64"/>
    <rect class="fil0 str0" x="11220" y="6631.48" width="4592.64" height="4592.64"/>
    <rect class="fil0 str0" x="6627.36" y="20409.41" width="4592.64" height="4592.64"/>
    <rect class="fil0 str0" x="11220" y="20409.41" width="4592.64" height="4592.64"/>
    <rect class="fil0 str0" x="2034.72" y="25002.05" width="4592.64" height="4592.64"/>
    <rect class="fil0 str0" x="6627.36" y="25002.05" width="4592.64" height="4592.64"/>
    <rect class="fil0 str0" x="11220" y="25002.05" width="4592.64" height="4592.64"/>
    <rect class="fil0 str0" x="15812.64" y="25002.05" width="4592.64" height="4592.64"/>
    <rect class="fil0 str0" x="20405.28" y="20409.41" width="4592.64" height="4592.64"/>
    <rect class="fil0 str0" x="20405.28" y="25002.05" width="4592.64" height="4592.64"/>
    <rect class="fil0 str0" x="20405.28" y="15816.77" width="4592.64" height="4592.64"/>
    <rect class="fil0 str0" x="2034.72" y="29594.69" width="4592.64" height="4592.64"/>
    <rect class="fil0 str0" x="2034.72" y="34187.33" width="4592.64" height="4592.64"/>
    <rect class="fil0 str0" x="11220" y="29594.69" width="4592.64" height="4592.64"/>
    <rect class="fil0 str0" x="11220" y="34187.33" width="4592.64" height="4592.64"/>
    <rect class="fil0 str0" x="15812.64" y="38779.97" width="4592.64" height="4592.64"/>
   </g>
   <g>
    <rect class="fil0 str0" x="34183.21" y="6631.48" width="4592.64" height="4592.64"/>
    <rect class="fil0 str0" x="29590.57" y="11224.13" width="4592.64" height="4592.64"/>
    <rect class="fil0 str0" x="29590.57" y="15816.77" width="4592.64" height="4592.64"/>
    <rect class="fil0 str0" x="34183.21" y="15816.77" width="4592.64" height="4592.64"/>
    <rect class="fil0 str0" x="34183.21" y="6631.48" width="4592.64" height="4592.64"/>
    <rect class="fil0 str0" x="38775.86" y="20409.41" width="4592.64" height="4592.64"/>
    <rect class="fil0 str0" x="34183.21" y="20409.41" width="4592.64" height="4592.64"/>
    <rect class="fil0 str0" x="43368.5" y="25002.05" width="4592.64" height="4592.64"/>
    <rect class="fil0 str0" x="38775.86" y="25002.05" width="4592.64" height="4592.64"/>
    <rect class="fil0 str0" x="34183.21" y="25002.05" width="4592.64" height="4592.64"/>
    <rect class="fil0 str0" x="29590.57" y="25002.05" width="4592.64" height="4592.64"/>
    <rect class="fil0 str0" x="24997.93" y="20409.41" width="4592.64" height="4592.64"/>
    <rect class="fil0 str0" x="24997.93" y="25002.05" width="4592.64" height="4592.64"/>
    <rect class="fil0 str0" x="24997.93" y="15816.77" width="4592.64" height="4592.64"/>
    <rect class="fil0 str0" x="43368.5" y="29594.69" width="4592.64" height="4592.64"/>
    <rect class="fil0 str0" x="43368.5" y="34187.33" width="4592.64" height="4592.64"/>
    <rect class="fil0 str0" x="34183.21" y="29594.69" width="4592.64" height="4592.64"/>
    <rect class="fil0 str0" x="34183.21" y="34187.33" width="4592.64" height="4592.64"/>
    <rect class="fil0 str0" x="29590.57" y="38779.97" width="4592.64" height="4592.64"/>
   </g>
  </g>
 </g>
</svg>
