<?xml version="1.0" encoding="UTF-8"?>
<!DOCTYPE svg PUBLIC "-//W3C//DTD SVG 1.1//EN" "http://www.w3.org/Graphics/SVG/1.1/DTD/svg11.dtd">
<!-- Creator: CorelDRAW 2019 (64-Bit) -->
<svg xmlns="http://www.w3.org/2000/svg" xml:space="preserve" width="500mm" height="500mm" version="1.1" style="shape-rendering:geometricPrecision; text-rendering:geometricPrecision; image-rendering:optimizeQuality; fill-rule:evenodd; clip-rule:evenodd"
viewBox="0 0 50000 50000"
 xmlns:xlink="http://www.w3.org/1999/xlink">
 <defs>
  <style type="text/css">
   <![CDATA[
    .str0 {stroke:#EE36EE;stroke-width:20;stroke-miterlimit:22.9256}
    .fil0 {fill:#EE36EE}
   ]]>
  </style>
   <clipPath id="id0">
    <rect x="-81115.98" y="-13501.39" width="36124.44" height="20320"/>
   </clipPath>
 </defs>
 <g id="Слой_x0020_1">
  <metadata id="CorelCorpID_0Corel-Layer"/>
  <g style="clip-path:url(#id0)">
   <image x="-81115.98" y="-13501.39" width="36124.44" height="20320" xlink:href="3_Images\3_ImgID1.png"/>
  </g>
  <rect class="fil0 str0" x="15812.65" y="4335.19" width="4592.64" height="4592.64"/>
  <rect class="fil0 str0" x="20405.29" y="4335.19" width="4592.64" height="4592.64"/>
  <rect class="fil0 str0" x="24997.93" y="4335.19" width="4592.64" height="4592.64"/>
  <rect class="fil0 str0" x="29590.57" y="4335.19" width="4592.64" height="4592.64"/>
  <rect class="fil0 str0" x="15812.65" y="8927.83" width="4592.64" height="4592.64"/>
  <rect class="fil0 str0" x="20405.29" y="8927.83" width="4592.64" height="4592.64"/>
  <rect class="fil0 str0" x="24997.93" y="8927.83" width="4592.64" height="4592.64"/>
  <rect class="fil0 str0" x="29590.57" y="8927.83" width="4592.64" height="4592.64"/>
  <rect class="fil0 str0" x="6627.37" y="8927.83" width="4592.64" height="4592.64"/>
  <rect class="fil0 str0" x="11220.01" y="8927.83" width="4592.64" height="4592.64"/>
  <rect class="fil0 str0" x="34183.21" y="8927.83" width="4592.64" height="4592.64"/>
  <rect class="fil0 str0" x="38775.85" y="8927.83" width="4592.64" height="4592.64"/>
  <rect class="fil0 str0" x="15812.65" y="13520.47" width="4592.64" height="4592.64"/>
  <rect class="fil0 str0" x="20405.29" y="13520.47" width="4592.64" height="4592.64"/>
  <rect class="fil0 str0" x="24997.93" y="13520.47" width="4592.64" height="4592.64"/>
  <rect class="fil0 str0" x="29590.57" y="13520.47" width="4592.64" height="4592.64"/>
  <rect class="fil0 str0" x="6627.37" y="13520.47" width="4592.64" height="4592.64"/>
  <rect class="fil0 str0" x="11220.01" y="13520.47" width="4592.64" height="4592.64"/>
  <rect class="fil0 str0" x="34183.21" y="13520.47" width="4592.64" height="4592.64"/>
  <rect class="fil0 str0" x="38775.85" y="13520.47" width="4592.64" height="4592.64"/>
  <rect class="fil0 str0" x="2034.73" y="13520.47" width="4592.64" height="4592.64"/>
  <rect class="fil0 str0" x="43368.49" y="13520.47" width="4592.64" height="4592.64"/>
  <rect class="fil0 str0" x="20405.29" y="18113.11" width="4592.64" height="4592.64"/>
  <rect class="fil0 str0" x="24997.93" y="18113.11" width="4592.64" height="4592.64"/>
  <rect class="fil0 str0" x="6627.37" y="18113.11" width="4592.64" height="4592.64"/>
  <rect class="fil0 str0" x="38775.85" y="18113.11" width="4592.64" height="4592.64"/>
  <rect class="fil0 str0" x="2034.73" y="18113.11" width="4592.64" height="4592.64"/>
  <rect class="fil0 str0" x="43368.49" y="18113.11" width="4592.64" height="4592.64"/>
  <rect class="fil0 str0" x="20405.29" y="22705.75" width="4592.64" height="4592.64"/>
  <rect class="fil0 str0" x="24997.93" y="22705.75" width="4592.64" height="4592.64"/>
  <rect class="fil0 str0" x="6627.37" y="22705.75" width="4592.64" height="4592.64"/>
  <rect class="fil0 str0" x="38775.85" y="22705.75" width="4592.64" height="4592.64"/>
  <rect class="fil0 str0" x="2034.73" y="22705.75" width="4592.64" height="4592.64"/>
  <rect class="fil0 str0" x="43368.49" y="22705.75" width="4592.64" height="4592.64"/>
  <rect class="fil0 str0" x="15812.65" y="27298.39" width="4592.64" height="4592.64"/>
  <rect class="fil0 str0" x="20405.29" y="27298.39" width="4592.64" height="4592.64"/>
  <rect class="fil0 str0" x="24997.93" y="27298.39" width="4592.64" height="4592.64"/>
  <rect class="fil0 str0" x="29590.57" y="27298.39" width="4592.64" height="4592.64"/>
  <rect class="fil0 str0" x="6627.37" y="27298.39" width="4592.64" height="4592.64"/>
  <rect class="fil0 str0" x="11220.01" y="27298.39" width="4592.64" height="4592.64"/>
  <rect class="fil0 str0" x="34183.21" y="27298.39" width="4592.64" height="4592.64"/>
  <rect class="fil0 str0" x="38775.85" y="27298.39" width="4592.64" height="4592.64"/>
  <rect class="fil0 str0" x="2034.73" y="27298.39" width="4592.64" height="4592.64"/>
  <rect class="fil0 str0" x="43368.49" y="27298.39" width="4592.64" height="4592.64"/>
  <rect class="fil0 str0" x="15812.65" y="31891.03" width="4592.64" height="4592.64"/>
  <rect class="fil0 str0" x="29590.57" y="31891.03" width="4592.64" height="4592.64"/>
  <rect class="fil0 str0" x="11220.01" y="31891.03" width="4592.64" height="4592.64"/>
  <rect class="fil0 str0" x="34183.21" y="31891.03" width="4592.64" height="4592.64"/>
  <rect class="fil0 str0" x="20405.29" y="36483.67" width="4592.64" height="4592.64"/>
  <rect class="fil0 str0" x="24997.93" y="36483.67" width="4592.64" height="4592.64"/>
  <rect class="fil0 str0" x="6627.37" y="36483.67" width="4592.64" height="4592.64"/>
  <rect class="fil0 str0" x="11220.01" y="36483.67" width="4592.64" height="4592.64"/>
  <rect class="fil0 str0" x="34183.21" y="36483.67" width="4592.64" height="4592.64"/>
  <rect class="fil0 str0" x="38775.85" y="36483.67" width="4592.64" height="4592.64"/>
  <rect class="fil0 str0" x="15812.65" y="27298.39" width="4592.64" height="4592.64"/>
  <rect class="fil0 str0" x="20405.29" y="27298.39" width="4592.64" height="4592.64"/>
  <rect class="fil0 str0" x="24997.93" y="27298.39" width="4592.64" height="4592.64"/>
  <rect class="fil0 str0" x="29590.57" y="27298.39" width="4592.64" height="4592.64"/>
  <rect class="fil0 str0" x="6627.37" y="27298.39" width="4592.64" height="4592.64"/>
  <rect class="fil0 str0" x="11220.01" y="27298.39" width="4592.64" height="4592.64"/>
  <rect class="fil0 str0" x="34183.21" y="27298.39" width="4592.64" height="4592.64"/>
  <rect class="fil0 str0" x="38775.85" y="27298.39" width="4592.64" height="4592.64"/>
  <rect class="fil0 str0" x="2034.73" y="27298.39" width="4592.64" height="4592.64"/>
  <rect class="fil0 str0" x="43368.49" y="27298.39" width="4592.64" height="4592.64"/>
  <rect class="fil0 str0" x="2034.73" y="41076.31" width="4592.64" height="4592.64"/>
  <rect class="fil0 str0" x="43368.49" y="41076.31" width="4592.64" height="4592.64"/>
 </g>
</svg>
