<?xml version="1.0" encoding="UTF-8"?>
<!DOCTYPE svg PUBLIC "-//W3C//DTD SVG 1.1//EN" "http://www.w3.org/Graphics/SVG/1.1/DTD/svg11.dtd">
<!-- Creator: CorelDRAW 2019 (64-Bit) -->
<svg xmlns="http://www.w3.org/2000/svg" xml:space="preserve" width="500mm" height="500mm" version="1.1" style="shape-rendering:geometricPrecision; text-rendering:geometricPrecision; image-rendering:optimizeQuality; fill-rule:evenodd; clip-rule:evenodd"
viewBox="0 0 50000 50000"
 xmlns:xlink="http://www.w3.org/1999/xlink">
 <defs>
  <style type="text/css">
   <![CDATA[
    .str0 {stroke:#009933;stroke-width:20;stroke-miterlimit:22.9256}
    .str3 {stroke:#99FFFF;stroke-width:20;stroke-miterlimit:22.9256}
    .str1 {stroke:#FF6600;stroke-width:20;stroke-miterlimit:22.9256}
    .str2 {stroke:#FF6600;stroke-width:20;stroke-miterlimit:22.9256}
    .fil0 {fill:#009933}
    .fil3 {fill:#99FFFF}
    .fil1 {fill:#FF6600}
    .fil2 {fill:#FF6600}
   ]]>
  </style>
 </defs>
 <g id="Слой_x0020_1">
  <metadata id="CorelCorpID_0Corel-Layer"/>
  <rect class="fil0 str0" x="22497.93" y="25002.07" width="5000" height="5000"/>
  <rect class="fil0 str0" x="22497.93" y="15002.07" width="5000" height="5000"/>
  <rect class="fil0 str0" x="22497.93" y="10002.07" width="5000" height="5000"/>
  <rect class="fil0 str0" x="27497.93" y="20002.07" width="5000" height="5000"/>
  <rect class="fil0 str0" x="17497.93" y="20002.07" width="5000" height="5000"/>
  <rect class="fil0 str0" x="32497.93" y="20002.07" width="5000" height="5000"/>
  <rect class="fil0 str0" x="12497.93" y="20002.07" width="5000" height="5000"/>
  <rect class="fil0 str0" x="37497.93" y="15002.07" width="5000" height="5000"/>
  <rect class="fil0 str0" x="37497.93" y="20002.07" width="5000" height="5000"/>
  <rect class="fil0 str0" x="37497.93" y="25002.07" width="5000" height="5000"/>
  <rect class="fil0 str0" x="32497.93" y="30002.07" width="5000" height="5000"/>
  <rect class="fil0 str0" x="7497.93" y="20002.07" width="5000" height="5000"/>
  <rect class="fil0 str0" x="7497.93" y="25002.07" width="5000" height="5000"/>
  <rect class="fil0 str0" x="12497.93" y="30002.07" width="5000" height="5000"/>
  <rect class="fil0 str0" x="7497.93" y="15002.07" width="5000" height="5000"/>
  <rect class="fil0 str0" x="22497.93" y="30002.07" width="5000" height="5000"/>
  <rect class="fil0 str0" x="22497.93" y="35002.07" width="5000" height="5000"/>
  <rect class="fil0 str0" x="42497.93" y="20002.07" width="5000" height="5000"/>
  <rect class="fil0 str0" x="2497.93" y="20002.07" width="5000" height="5000"/>
  <rect class="fil0 str0" x="27497.93" y="15002.07" width="5000" height="5000"/>
  <rect class="fil0 str0" x="17497.93" y="15002.07" width="5000" height="5000"/>
  <rect class="fil1 str1" x="37497.93" y="30002.07" width="5000" height="5000"/>
  <rect class="fil2 str2" x="7497.93" y="30002.07" width="5000" height="5000"/>
  <rect class="fil0 str0" x="2497.93" y="30002.07" width="5000" height="5000"/>
  <rect class="fil0 str0" x="42497.93" y="30002.07" width="5000" height="5000"/>
  <rect class="fil3 str3" x="22497.93" y="20002.07" width="5000" height="5000"/>
 </g>
</svg>
