<?xml version="1.0" encoding="UTF-8"?>
<!DOCTYPE svg PUBLIC "-//W3C//DTD SVG 1.1//EN" "http://www.w3.org/Graphics/SVG/1.1/DTD/svg11.dtd">
<!-- Creator: CorelDRAW 2019 (64-Bit) -->
<svg xmlns="http://www.w3.org/2000/svg" xml:space="preserve" width="4.2332mm" height="4.2332mm" version="1.1" style="shape-rendering:geometricPrecision; text-rendering:geometricPrecision; image-rendering:optimizeQuality; fill-rule:evenodd; clip-rule:evenodd"
viewBox="0 0 423.32 423.32"
 xmlns:xlink="http://www.w3.org/1999/xlink">
 <defs>
  <style type="text/css">
   <![CDATA[
    .str1 {stroke:#009933;stroke-width:20;stroke-miterlimit:22.9256}
    .str3 {stroke:#99FFFF;stroke-width:20;stroke-miterlimit:22.9256}
    .str2 {stroke:#FF6600;stroke-width:20;stroke-miterlimit:22.9256}
    .str0 {stroke:black;stroke-width:20;stroke-miterlimit:22.9256}
    .fil1 {fill:#009933}
    .fil3 {fill:#99FFFF}
    .fil2 {fill:#FF6600}
    .fil0 {fill:black}
   ]]>
  </style>
 </defs>
 <g id="Слой_x0020_1">
  <metadata id="CorelCorpID_0Corel-Layer"/>
  <rect class="fil0 str0" x="-84.67" y="-16.95" width="541.86" height="474.13"/>
  <g id="_2192135824800">
   <rect class="fil1 str1" x="186.27" y="220.12" width="33.87" height="33.87"/>
   <rect class="fil1 str1" x="186.27" y="152.39" width="33.87" height="33.87"/>
   <rect class="fil1 str1" x="186.27" y="118.52" width="33.87" height="33.87"/>
   <rect class="fil1 str1" x="220.13" y="186.25" width="33.87" height="33.87"/>
   <rect class="fil1 str1" x="152.4" y="186.25" width="33.87" height="33.87"/>
   <rect class="fil1 str1" x="254" y="186.25" width="33.87" height="33.87"/>
   <rect class="fil1 str1" x="118.53" y="186.25" width="33.87" height="33.87"/>
   <rect class="fil1 str1" x="287.87" y="152.39" width="33.87" height="33.87"/>
   <rect class="fil1 str1" x="287.87" y="186.25" width="33.87" height="33.87"/>
   <rect class="fil1 str1" x="287.87" y="220.12" width="33.87" height="33.87"/>
   <rect class="fil1 str1" x="254" y="253.99" width="33.87" height="33.87"/>
   <rect class="fil1 str1" x="84.67" y="186.25" width="33.87" height="33.87"/>
   <rect class="fil1 str1" x="84.67" y="220.12" width="33.87" height="33.87"/>
   <rect class="fil1 str1" x="118.53" y="253.99" width="33.87" height="33.87"/>
   <rect class="fil1 str1" x="84.67" y="152.39" width="33.87" height="33.87"/>
   <rect class="fil1 str1" x="186.27" y="253.99" width="33.87" height="33.87"/>
   <rect class="fil1 str1" x="186.27" y="287.85" width="33.87" height="33.87"/>
   <rect class="fil1 str1" x="321.73" y="186.25" width="33.87" height="33.87"/>
   <rect class="fil1 str1" x="50.8" y="186.25" width="33.87" height="33.87"/>
   <rect class="fil1 str1" x="220.13" y="152.39" width="33.87" height="33.87"/>
   <rect class="fil1 str1" x="152.4" y="152.39" width="33.87" height="33.87"/>
   <rect class="fil2 str2" x="287.87" y="253.99" width="33.87" height="33.87"/>
   <rect class="fil2 str2" x="84.67" y="253.99" width="33.87" height="33.87"/>
   <rect class="fil1 str1" x="50.8" y="253.99" width="33.87" height="33.87"/>
   <rect class="fil1 str1" x="321.73" y="253.99" width="33.87" height="33.87"/>
   <rect class="fil3 str3" x="186.27" y="186.25" width="33.87" height="33.87"/>
  </g>
 </g>
</svg>
